<svg xmlns="http://www.w3.org/2000/svg" width="800" height="600" viewBox="0 0 800 600" role="img" aria-label="">
  <defs>
    <linearGradient id="bg" x1="0" y1="0" x2="0" y2="1">
      <stop offset="0%" stop-color="#f8fafc"/>
      <stop offset="100%" stop-color="#e2e8f0"/>
    </linearGradient>
  </defs>
  <rect width="800" height="600" fill="url(#bg)"/>
  <rect x="72" y="48" width="656" height="504" rx="12" fill="#ffffff" stroke="#cbd5e1" stroke-width="2"/>
  <rect x="72" y="48" width="656" height="40" rx="12" fill="#f1f5f9"/>
  <circle cx="100" cy="68" r="6" fill="#fca5a5"/>
  <circle cx="124" cy="68" r="6" fill="#fcd34d"/>
  <circle cx="148" cy="68" r="6" fill="#86efac"/>
  <rect x="104" y="120" width="360" height="14" rx="4" fill="#e2e8f0"/>
  <rect x="104" y="148" width="280" height="10" rx="3" fill="#f1f5f9"/>
  <rect x="104" y="188" width="592" height="120" rx="8" fill="#f8fafc" stroke="#e2e8f0"/>
  <rect x="104" y="330" width="200" height="10" rx="3" fill="#e2e8f0"/>
  <rect x="104" y="352" width="592" height="8" rx="2" fill="#f1f5f9"/>
  <rect x="104" y="372" width="520" height="8" rx="2" fill="#f1f5f9"/>
  <rect x="104" y="410" width="160" height="40" rx="8" fill="#111827" opacity="0.9"/>
</svg>
