<svg xmlns="http://www.w3.org/2000/svg" width="800" height="600" viewBox="0 0 800 600" role="img" aria-label="">
  <defs>
    <linearGradient id="lg" x1="0" y1="0" x2="1" y2="1">
      <stop offset="0%" stop-color="#ecfdf5"/>
      <stop offset="100%" stop-color="#d1fae5"/>
    </linearGradient>
  </defs>
  <rect width="800" height="600" fill="url(#lg)"/>
  <rect x="300" y="40" width="200" height="520" rx="28" fill="#0f172a" opacity="0.92"/>
  <rect x="312" y="72" width="176" height="36" rx="10" fill="#1e293b"/>
  <rect x="318" y="130" width="164" height="380" rx="16" fill="#f8fafc"/>
  <rect x="334" y="156" width="132" height="12" rx="4" fill="#d1fae5"/>
  <rect x="334" y="182" width="100" height="8" rx="2" fill="#e2e8f0"/>
  <rect x="334" y="220" width="132" height="72" rx="10" fill="#ecfdf5"/>
  <circle cx="400" cy="256" r="18" fill="#34d399" opacity="0.85"/>
  <rect x="334" y="312" width="132" height="10" rx="3" fill="#e2e8f0"/>
  <rect x="334" y="332" width="108" height="8" rx="2" fill="#f1f5f9"/>
  <rect x="334" y="380" width="132" height="44" rx="12" fill="#111827"/>
  <rect x="372" y="528" width="56" height="5" rx="2" fill="#334155"/>
</svg>
