<?xml version="1.0" encoding="UTF-8"?>
<!DOCTYPE svg PUBLIC "-//W3C//DTD SVG 1.1//EN" "http://www.w3.org/Graphics/SVG/1.1/DTD/svg11.dtd">
<!-- Creator: CorelDRAW -->
<svg xmlns="http://www.w3.org/2000/svg" xml:space="preserve" width="20.7808mm" height="20.7808mm" version="1.1" style="shape-rendering:geometricPrecision; text-rendering:geometricPrecision; image-rendering:optimizeQuality; fill-rule:evenodd; clip-rule:evenodd"
viewBox="0 0 640.24 640.24"
 xmlns:xlink="http://www.w3.org/1999/xlink"
 xmlns:xodm="http://www.corel.com/coreldraw/odm/2003">
 <defs>
  <style type="text/css">
   <![CDATA[
    .fil0 {fill:#FEFEFE}
    .fil1 {fill:black;fill-rule:nonzero}
   ]]>
  </style>
 </defs>
 <g id="Vrstva_x0020_1">
  <metadata id="CorelCorpID_0Corel-Layer"/>
  <circle class="fil0" cx="320.12" cy="320.12" r="320.12"/>
  <path class="fil1" d="M224.61 469.51l0 -286.46 117.45 0c19.92,0 36.69,3.14 50.34,9.41 13.64,6.27 23.94,14.94 30.9,25.98 6.96,11.05 10.44,23.8 10.44,38.26 0,14.46 -3.07,26.6 -9.21,36.42 -6.14,9.82 -14.39,17.39 -24.76,22.71 -10.37,5.32 -21.55,8.39 -33.56,9.21l6.14 -4.5c13.1,0.55 24.76,4.02 34.99,10.44 10.23,6.41 18.28,14.94 24.15,25.58 5.86,10.64 8.8,22.24 8.8,34.78 0,15.28 -3.61,28.78 -10.84,40.51 -7.23,11.73 -17.87,20.94 -31.92,27.62 -14.05,6.68 -31.17,10.03 -51.36,10.03l-121.54 0zm55.25 -45.02l57.7 0c14.73,0 26.19,-3.41 34.37,-10.23 8.19,-6.82 12.28,-16.64 12.28,-29.46 0,-12.82 -4.23,-22.85 -12.68,-30.08 -8.46,-7.23 -20.05,-10.84 -34.79,-10.84l-56.88 0 0 80.62zm0 -121.95l53.2 0c14.46,0 25.51,-3.28 33.15,-9.82 7.64,-6.55 11.46,-15.82 11.46,-27.83 0,-11.73 -3.82,-20.94 -11.46,-27.62 -7.64,-6.68 -18.82,-10.03 -33.56,-10.03l-52.79 0 0 75.3z"/>
 </g>
</svg>
