<?xml version="1.0" encoding="UTF-8"?>
<!DOCTYPE svg PUBLIC "-//W3C//DTD SVG 1.1//EN" "http://www.w3.org/Graphics/SVG/1.1/DTD/svg11.dtd">
<!-- Creator: CorelDRAW -->
<svg xmlns="http://www.w3.org/2000/svg" xml:space="preserve" width="20.7808mm" height="20.7808mm" version="1.1" style="shape-rendering:geometricPrecision; text-rendering:geometricPrecision; image-rendering:optimizeQuality; fill-rule:evenodd; clip-rule:evenodd"
viewBox="0 0 352 352"
 xmlns:xlink="http://www.w3.org/1999/xlink"
 xmlns:xodm="http://www.corel.com/coreldraw/odm/2003">
 <defs>
  <style type="text/css">
   <![CDATA[
    .fil0 {fill:black}
    .fil1 {fill:#FEFEFE;fill-rule:nonzero}
   ]]>
  </style>
 </defs>
 <g id="Vrstva_x0020_1">
  <metadata id="CorelCorpID_0Corel-Layer"/>
  <circle class="fil0" cx="176" cy="176" r="176"/>
  <path class="fil1" d="M123.49 258.14l0 -157.49 64.57 0c10.95,0 20.17,1.72 27.67,5.17 7.5,3.45 13.16,8.21 16.99,14.29 3.82,6.08 5.74,13.09 5.74,21.04 0,7.95 -1.69,14.63 -5.06,20.03 -3.37,5.4 -7.91,9.56 -13.61,12.49 -5.7,2.93 -11.85,4.61 -18.45,5.06l3.37 -2.47c7.2,0.3 13.61,2.21 19.24,5.74 5.62,3.52 10.05,8.21 13.28,14.06 3.22,5.85 4.84,12.22 4.84,19.12 0,8.4 -1.99,15.82 -5.96,22.27 -3.97,6.45 -9.82,11.51 -17.55,15.19 -7.72,3.67 -17.14,5.51 -28.24,5.51l-66.82 0zm30.37 -24.75l31.72 0c8.1,0 14.4,-1.88 18.9,-5.63 4.5,-3.75 6.75,-9.15 6.75,-16.2 0,-7.05 -2.32,-12.56 -6.97,-16.54 -4.65,-3.97 -11.03,-5.96 -19.13,-5.96l-31.27 0 0 44.32zm0 -67.05l29.25 0c7.95,0 14.02,-1.8 18.22,-5.4 4.2,-3.6 6.3,-8.7 6.3,-15.3 0,-6.45 -2.1,-11.51 -6.3,-15.19 -4.2,-3.67 -10.35,-5.51 -18.45,-5.51l-29.02 0 0 41.4z"/>
 </g>
</svg>
